<svg width="410" height="404" viewBox="0 0 410 404" fill="none" xmlns="http://www.w3.org/2000/svg">
<ellipse cx="205" cy="202" rx="205" ry="202" fill="#FD4A4A" fill-opacity="0.8"/>
<path d="M285.578 239.031C283.047 260.688 275.031 277.422 261.531 289.234C248.125 300.953 230.266 306.812 207.953 306.812C183.766 306.812 164.359 298.141 149.734 280.797C135.203 263.453 127.938 240.25 127.938 211.188V191.5C127.938 172.469 131.312 155.734 138.062 141.297C144.906 126.859 154.562 115.797 167.031 108.109C179.5 100.328 193.938 96.4375 210.344 96.4375C232.094 96.4375 249.531 102.531 262.656 114.719C275.781 126.812 283.422 143.594 285.578 165.062H258.438C256.094 148.75 250.984 136.938 243.109 129.625C235.328 122.312 224.406 118.656 210.344 118.656C193.094 118.656 179.547 125.031 169.703 137.781C159.953 150.531 155.078 168.672 155.078 192.203V212.031C155.078 234.25 159.719 251.922 169 265.047C178.281 278.172 191.266 284.734 207.953 284.734C222.953 284.734 234.438 281.359 242.406 274.609C250.469 267.766 255.812 255.906 258.438 239.031H285.578Z" fill="white"/>
</svg>
